<svg xmlns="http://www.w3.org/2000/svg" viewBox="0 0 1027 1536" width="1027" height="1536">
<path d="M 7 1530 L 7 1533 L 8 1532 L 9 1533 Z M 911 925 L 879 925 L 869 935 L 846 954 L 839 961 L 839 963 L 843 964 L 845 966 L 849 966 L 851 968 L 859 969 L 875 956 L 876 954 L 895 940 L 898 936 L 908 930 L 911 927 Z M 206 925 L 193 942 L 189 945 L 187 949 L 165 973 L 162 978 L 162 981 L 199 1026 L 209 1036 L 220 1044 L 221 1046 L 223 1046 L 231 1052 L 233 1052 L 243 1058 L 246 1058 L 255 1062 L 262 1062 L 266 1064 L 292 1064 L 293 1061 L 285 1059 L 272 1053 L 255 1041 L 224 1008 L 223 1005 L 220 1003 L 201 978 L 200 973 L 218 955 L 220 951 L 223 949 L 232 938 L 243 928 L 243 926 L 240 924 L 239 925 L 234 925 L 233 924 L 232 925 L 227 924 L 209 924 Z M 211 528 L 209 535 L 205 542 L 201 557 L 199 559 L 199 564 L 197 567 L 195 580 L 193 583 L 193 590 L 191 596 L 191 607 L 189 615 L 189 643 L 191 652 L 191 665 L 193 669 L 193 676 L 195 680 L 195 685 L 197 689 L 197 692 L 199 695 L 199 699 L 201 702 L 201 707 L 203 708 L 203 712 L 205 714 L 205 717 L 207 719 L 209 726 L 223 753 L 228 759 L 237 774 L 245 784 L 247 785 L 247 787 L 253 792 L 258 799 L 267 808 L 290 828 L 316 846 L 318 846 L 333 856 L 339 858 L 340 860 L 342 860 L 348 864 L 351 864 L 352 866 L 355 866 L 356 868 L 362 869 L 366 872 L 377 875 L 379 877 L 382 877 L 400 884 L 404 884 L 405 886 L 410 886 L 413 888 L 418 888 L 441 894 L 448 894 L 453 896 L 463 896 L 467 898 L 484 898 L 490 900 L 537 900 L 544 898 L 558 898 L 559 897 L 562 898 L 564 896 L 572 896 L 573 895 L 574 896 L 578 894 L 586 894 L 590 892 L 596 892 L 599 890 L 606 890 L 608 888 L 613 888 L 616 886 L 620 886 L 630 882 L 635 882 L 636 880 L 639 880 L 647 876 L 651 876 L 653 874 L 656 874 L 667 868 L 670 868 L 672 866 L 696 855 L 703 850 L 705 851 L 706 848 L 711 846 L 727 834 L 729 834 L 730 832 L 750 817 L 776 791 L 786 777 L 792 771 L 796 763 L 803 754 L 806 747 L 808 746 L 808 743 L 810 742 L 810 740 L 816 730 L 820 718 L 822 717 L 822 713 L 826 707 L 826 702 L 828 699 L 828 695 L 832 685 L 832 679 L 834 676 L 834 669 L 837 658 L 836 654 L 838 649 L 838 608 L 836 603 L 834 582 L 832 578 L 832 573 L 830 570 L 830 565 L 828 562 L 828 559 L 826 556 L 826 552 L 824 550 L 822 541 L 818 535 L 818 531 L 816 530 L 816 528 L 811 520 L 810 515 L 808 514 L 808 512 L 800 500 L 798 494 L 796 493 L 791 486 L 790 482 L 787 480 L 770 458 L 759 447 L 749 439 L 744 433 L 740 431 L 739 429 L 731 424 L 726 419 L 698 401 L 687 395 L 684 395 L 681 398 L 681 400 L 684 403 L 691 406 L 692 408 L 694 408 L 730 436 L 747 453 L 765 475 L 777 493 L 777 495 L 779 496 L 779 498 L 789 515 L 791 522 L 795 529 L 797 539 L 799 540 L 801 550 L 803 553 L 806 566 L 805 567 L 807 570 L 807 577 L 809 581 L 809 591 L 811 600 L 811 629 L 809 638 L 809 648 L 807 651 L 807 660 L 805 663 L 803 676 L 801 679 L 801 682 L 799 684 L 799 688 L 795 695 L 795 699 L 793 701 L 791 708 L 783 722 L 783 724 L 779 729 L 779 731 L 777 732 L 777 734 L 773 739 L 773 741 L 771 742 L 769 746 L 764 751 L 761 757 L 750 770 L 729 791 L 712 805 L 693 817 L 692 819 L 671 831 L 669 831 L 659 837 L 651 839 L 650 841 L 632 847 L 624 851 L 620 851 L 618 853 L 600 857 L 596 859 L 591 859 L 577 863 L 570 863 L 566 865 L 555 865 L 550 867 L 531 867 L 530 868 L 476 867 L 469 865 L 461 865 L 456 863 L 449 863 L 446 861 L 439 861 L 435 859 L 431 859 L 429 857 L 422 857 L 420 855 L 409 853 L 406 851 L 385 844 L 383 842 L 377 841 L 376 839 L 368 837 L 367 835 L 364 835 L 355 829 L 349 827 L 348 825 L 342 823 L 338 819 L 336 819 L 313 803 L 291 784 L 290 781 L 289 782 L 266 757 L 252 737 L 252 735 L 250 734 L 250 732 L 246 727 L 246 725 L 244 724 L 244 722 L 242 720 L 242 717 L 239 714 L 238 709 L 236 708 L 236 705 L 234 703 L 232 695 L 230 693 L 228 684 L 226 682 L 226 678 L 224 676 L 224 671 L 220 658 L 220 650 L 218 647 L 218 634 L 216 629 L 216 603 L 218 599 L 218 584 L 220 580 L 220 571 L 222 569 L 222 561 L 224 559 L 223 558 L 224 553 L 228 544 L 228 540 L 230 539 L 230 535 L 236 520 L 238 518 L 238 516 L 240 514 L 246 500 L 248 499 L 248 496 L 250 495 L 250 493 L 258 481 L 260 480 L 265 471 L 268 469 L 280 453 L 304 430 L 320 418 L 321 416 L 323 416 L 327 412 L 347 400 L 345 395 L 340 395 L 335 399 L 333 399 L 328 403 L 323 405 L 314 412 L 299 421 L 298 423 L 275 441 L 257 459 L 239 481 L 225 502 L 217 516 L 213 526 Z" fill="#EE8303" fill-rule="evenodd"/>
<path d="M 2 1532 L 4 1535 L 9 1535 L 8 1533 L 7 1534 L 6 1533 L 6 1530 L 4 1530 Z M 0 1525 L 0 1528 L 2 1527 L 3 1528 Z M 832 969 L 832 990 L 849 1007 L 879 1032 L 923 1032 L 922 1029 L 913 1026 L 895 1014 L 872 994 L 857 979 Z M 670 962 L 663 962 L 657 964 L 645 965 L 640 967 L 646 973 L 646 1024 L 641 1030 L 641 1032 L 675 1032 L 676 1031 L 671 1026 L 671 1020 L 670 1019 L 670 969 L 671 968 L 671 963 Z M 769 968 L 761 963 L 752 961 L 736 962 L 724 967 L 719 971 L 717 970 L 717 962 L 710 962 L 709 963 L 688 966 L 688 968 L 693 972 L 693 1025 L 688 1031 L 689 1032 L 723 1032 L 723 1030 L 718 1025 L 718 981 L 725 976 L 730 974 L 738 973 L 745 975 L 750 981 L 750 1019 L 751 1022 L 749 1028 L 746 1031 L 747 1032 L 780 1032 L 780 1029 L 778 1029 L 775 1025 L 775 982 L 773 974 Z M 334 966 L 334 969 L 336 969 L 339 973 L 339 1025 L 334 1030 L 335 1032 L 367 1032 L 368 1031 L 368 1029 L 364 1026 L 364 981 L 369 977 L 377 974 L 389 975 L 395 983 L 395 1024 L 390 1030 L 391 1032 L 423 1032 L 424 1031 L 419 1024 L 419 981 L 427 976 L 433 974 L 443 974 L 447 976 L 451 982 L 451 1025 L 447 1030 L 447 1032 L 480 1032 L 481 1031 L 476 1026 L 475 1021 L 475 977 L 471 969 L 462 963 L 455 961 L 439 962 L 425 968 L 418 973 L 416 973 L 407 964 L 397 961 L 388 961 L 379 963 L 365 971 L 363 970 L 363 962 L 360 961 L 355 963 Z M 255 972 L 247 982 L 243 994 L 243 1004 L 245 1011 L 248 1017 L 254 1024 L 269 1032 L 279 1034 L 293 1034 L 311 1029 L 323 1021 L 323 1017 L 321 1015 L 317 1018 L 303 1022 L 285 1021 L 274 1013 L 269 1003 L 268 998 L 269 995 L 323 995 L 322 981 L 319 975 L 312 968 L 299 962 L 281 961 L 271 963 Z M 269 984 L 272 977 L 278 971 L 282 969 L 289 968 L 294 970 L 298 974 L 300 978 L 301 986 L 300 987 L 292 987 L 291 986 L 282 987 L 281 986 L 280 987 L 279 986 L 270 987 Z M 645 940 L 644 948 L 650 954 L 654 955 L 665 954 L 671 948 L 671 940 L 667 936 L 662 934 L 651 935 Z M 791 926 L 796 931 L 798 935 L 798 1022 L 797 1025 L 791 1031 L 792 1032 L 831 1032 L 832 1030 L 826 1025 L 825 1022 L 825 935 L 827 931 L 832 926 L 826 926 L 825 925 L 824 926 L 801 926 L 800 925 Z M 122 926 L 129 934 L 129 1023 L 122 1030 L 123 1032 L 163 1032 L 164 1030 L 157 1023 L 157 934 L 164 926 L 163 925 L 162 926 L 160 925 L 159 926 L 127 926 L 126 925 Z M 622 923 L 593 929 L 593 931 L 598 935 L 598 1024 L 592 1030 L 593 1032 L 627 1032 L 628 1031 L 623 1025 L 623 924 Z M 491 929 L 491 931 L 496 935 L 496 1026 L 509 1031 L 518 1033 L 541 1034 L 557 1030 L 565 1026 L 575 1018 L 578 1014 L 583 1002 L 583 986 L 579 976 L 569 967 L 560 963 L 550 961 L 535 962 L 522 967 L 521 966 L 521 924 L 520 923 Z M 530 972 L 543 972 L 546 973 L 554 980 L 558 990 L 558 1007 L 556 1013 L 548 1023 L 540 1026 L 534 1026 L 526 1024 L 521 1019 L 521 976 L 523 974 Z M 433 751 L 435 766 L 438 775 L 445 789 L 451 797 L 466 811 L 478 818 L 485 821 L 501 825 L 526 825 L 527 824 L 532 824 L 547 819 L 558 813 L 575 798 L 583 787 L 588 777 L 593 759 L 593 750 L 568 750 L 562 767 L 556 776 L 549 783 L 534 792 L 524 795 L 511 796 L 493 792 L 478 783 L 466 769 L 461 758 L 459 750 L 434 750 Z M 497 549 L 496 552 L 497 553 L 496 554 L 496 583 L 495 584 L 495 607 L 494 608 L 494 625 L 493 626 L 493 641 L 492 642 L 492 659 L 491 660 L 490 687 L 489 688 L 489 699 L 488 700 L 488 712 L 487 713 L 487 725 L 486 726 L 483 768 L 490 775 L 499 780 L 515 783 L 516 782 L 526 781 L 536 776 L 544 768 L 544 756 L 543 755 L 543 746 L 542 745 L 537 669 L 536 668 L 534 624 L 533 623 L 532 589 L 531 588 L 531 556 L 530 555 L 530 549 Z M 379 348 L 360 374 L 350 390 L 366 397 L 387 411 L 403 426 L 413 438 L 421 450 L 430 468 L 436 488 L 437 502 L 436 503 L 419 503 L 418 502 L 378 500 L 377 499 L 349 497 L 348 496 L 335 495 L 322 492 L 321 493 L 321 547 L 322 548 L 323 547 L 348 544 L 349 543 L 394 540 L 395 539 L 409 539 L 410 538 L 436 538 L 437 543 L 433 562 L 428 576 L 415 600 L 405 613 L 386 632 L 364 648 L 354 653 L 353 655 L 364 667 L 385 693 L 389 692 L 402 682 L 419 665 L 432 649 L 445 628 L 453 612 L 459 594 L 461 591 L 467 567 L 470 539 L 472 537 L 556 537 L 557 538 L 558 554 L 563 579 L 570 601 L 580 623 L 594 646 L 608 664 L 625 681 L 643 694 L 674 656 L 674 653 L 662 647 L 644 634 L 619 608 L 608 592 L 600 577 L 592 553 L 590 539 L 591 538 L 630 539 L 631 540 L 677 543 L 678 544 L 699 546 L 705 548 L 707 547 L 707 493 L 701 493 L 700 494 L 674 497 L 673 498 L 655 499 L 654 500 L 640 500 L 639 501 L 612 502 L 611 503 L 591 503 L 590 502 L 591 491 L 595 475 L 605 453 L 616 436 L 637 414 L 647 406 L 653 403 L 656 400 L 660 399 L 670 393 L 677 391 L 677 389 L 659 363 L 655 359 L 648 348 L 644 350 L 621 367 L 601 388 L 583 414 L 572 436 L 563 462 L 558 486 L 557 503 L 556 504 L 502 505 L 501 504 L 472 504 L 471 503 L 469 483 L 465 465 L 463 461 L 463 457 L 454 433 L 442 410 L 429 391 L 411 371 L 394 357 Z M 484 336 L 487 351 L 487 357 L 488 358 L 488 365 L 491 381 L 491 390 L 492 391 L 492 400 L 493 401 L 494 427 L 495 428 L 495 449 L 496 450 L 497 491 L 499 492 L 500 491 L 504 492 L 506 491 L 507 492 L 510 491 L 511 492 L 512 491 L 513 492 L 530 492 L 531 491 L 531 460 L 532 459 L 533 423 L 534 422 L 536 386 L 537 385 L 537 376 L 538 375 L 542 336 Z" fill="#0D360E" fill-rule="evenodd"/>
</svg>